<svg width="89" height="115" xmlns="http://www.w3.org/2000/svg" xmlns:xlink="http://www.w3.org/1999/xlink" overflow="hidden"><g transform="translate(-600 -285)"><g><g><g><path d="M26 23.8333C23.2917 23.8333 21.125 21.6667 21.125 18.9583 21.125 16.25 23.2917 14.0833 26 14.0833 28.7083 14.0833 30.875 16.25 30.875 18.9583 30.875 21.6667 28.7083 23.8333 26 23.8333ZM26 7.58333C22.2625 7.58333 18.7417 9.425 16.6292 12.5667 14.5167 15.6542 14.0833 19.6083 15.4375 23.1292L20.5833 34.5042 25.025 43.8208C25.1875 44.2 25.5667 44.4167 26 44.4167 26.4333 44.4167 26.8125 44.2 26.975 43.8208L31.4167 34.5042 36.5625 23.1292C37.9167 19.6083 37.4833 15.6542 35.3708 12.5667 33.2583 9.425 29.7375 7.58333 26 7.58333Z" transform="matrix(1.01923 0 0 1 618 286)"/></g></g></g><g><g><g><path d="M636.667 344.083 639.233 341.517C636.421 338.601 636.421 333.982 639.233 331.067L636.667 328.5C632.388 332.813 632.388 339.77 636.667 344.083Z"/><path d="M631.533 349.217 634.1 346.65C628.379 340.966 628.35 331.72 634.034 325.999 634.056 325.977 634.078 325.955 634.1 325.933L631.533 323.367C624.395 330.404 624.313 341.896 631.351 349.034 631.411 349.095 631.472 349.156 631.533 349.217Z"/><path d="M628.875 351.875C620.318 343.248 620.318 329.335 628.875 320.708L626.308 318.142C616.284 328.165 616.284 344.416 626.307 354.44 626.307 354.44 626.308 354.441 626.308 354.442Z"/><path d="M652.25 344.083C656.528 339.77 656.528 332.813 652.25 328.5L649.683 331.067C651.054 332.458 651.813 334.339 651.792 336.292 651.795 338.241 651.039 340.115 649.683 341.517Z"/><path d="M654.817 346.65 657.383 349.217C664.522 342.179 664.603 330.688 657.566 323.549 657.505 323.488 657.445 323.427 657.383 323.367L654.817 325.933C660.537 331.618 660.567 340.864 654.882 346.584 654.861 346.606 654.839 346.628 654.817 346.65Z"/><path d="M660.042 351.875 662.608 354.442C672.632 344.419 672.633 328.168 662.61 318.144 662.61 318.143 662.609 318.142 662.608 318.142L660.042 320.708C668.599 329.335 668.599 343.248 660.042 351.875Z"/><path d="M672.417 391.484 672.417 391.484C672.388 391.321 672.336 391.164 672.261 391.017 672.261 391.017 672.261 391.017 672.261 390.962L646.136 340.087C646.056 339.938 645.954 339.801 645.833 339.683 647.711 338.924 648.617 336.786 647.857 334.909 647.098 333.032 644.961 332.126 643.083 332.885 641.206 333.645 640.3 335.782 641.059 337.659 641.432 338.58 642.162 339.311 643.083 339.683 642.985 339.791 642.902 339.911 642.836 340.041L616.711 390.916C616.711 390.916 616.711 390.916 616.711 390.971 616.636 391.118 616.583 391.276 616.555 391.438L616.555 391.438C616.532 391.59 616.532 391.745 616.555 391.897 616.555 391.897 616.555 391.97 616.555 392.007 616.58 392.155 616.623 392.3 616.683 392.438 616.683 392.438 616.683 392.438 616.683 392.438 616.683 392.438 616.775 392.566 616.812 392.639 616.867 392.731 616.929 392.82 616.995 392.905L616.995 392.905C617.042 392.945 617.091 392.981 617.142 393.015 617.221 393.09 617.307 393.158 617.398 393.217 617.47 393.254 617.543 393.288 617.618 393.318L617.893 393.418 618.132 393.418 618.333 393.583 618.462 393.583 618.581 393.583C618.749 393.568 618.913 393.524 619.067 393.455L644.477 382.281 669.85 393.427C670.08 393.532 670.33 393.586 670.583 393.583L670.583 393.583C670.735 393.581 670.886 393.559 671.032 393.519L671.161 393.519C671.277 393.475 671.391 393.423 671.5 393.363L671.583 393.308C671.702 393.233 671.813 393.144 671.912 393.043L671.912 393.043C671.984 392.953 672.048 392.858 672.105 392.758 672.145 392.699 672.182 392.638 672.215 392.575 672.215 392.575 672.215 392.575 672.215 392.575 672.277 392.435 672.32 392.287 672.343 392.135 672.343 392.135 672.343 392.071 672.343 392.034 672.401 391.857 672.426 391.67 672.417 391.484ZM656.833 368.98 647.575 362.719 652.039 359.667ZM644.458 344.89 650.352 356.358 644.321 360.51 638.821 356.843C638.701 356.76 638.572 356.692 638.436 356.642ZM636.777 359.841 641.076 362.747 632.083 368.916ZM622.321 388.001 628.792 375.388 639.912 380.273ZM632.578 373.05 644.339 364.956 656.329 373.068 644.477 378.275ZM663.745 386.745 649.032 380.283 660.133 375.406 666.596 387.992Z"/></g></g></g></g></svg>